<?xml version="1.0" encoding="UTF-8"?>
<svg version="1.1" xmlns="http://www.w3.org/2000/svg" width="500" height="500">
<path d="M0 0 C1.49448379 -0.00457212 2.98896549 -0.00988073 4.48344421 -0.0158844 C7.59394965 -0.02475652 10.70419743 -0.02245636 13.81469727 -0.01245117 C17.79031939 -0.00090512 21.76506065 -0.02128776 25.74056721 -0.05036831 C28.81790243 -0.06874174 31.89502625 -0.06843674 34.97240257 -0.06273079 C36.4383589 -0.06257805 37.90432998 -0.06858288 39.37023354 -0.08102226 C41.4183632 -0.09597262 43.46485948 -0.08523295 45.51293945 -0.06811523 C46.67445023 -0.06794907 47.835961 -0.0677829 49.03266907 -0.06761169 C52.98609738 0.54603009 55.14866966 1.96393118 58.26171875 4.43359375 C61.59348772 9.28972735 61.71608427 13.65600306 61.6953125 19.33984375 C61.70055435 20.18276978 61.7057962 21.0256958 61.7111969 21.89416504 C61.71759551 23.66917829 61.7163082 25.44423406 61.70776367 27.21923828 C61.69924399 29.92557592 61.72805892 32.62980748 61.75976562 35.3359375 C61.7613777 37.06640562 61.76079998 38.79687746 61.7578125 40.52734375 C61.76904648 41.3306311 61.78028046 42.13391846 61.79185486 42.96154785 C61.71549049 49.15628458 59.7651946 52.52956176 55.69921875 57.24609375 C53.00117053 59.47491619 50.29201471 59.56283314 46.94897461 59.59130859 C46.08054428 59.60157074 45.21211395 59.61183289 44.31736755 59.62240601 C43.37990189 59.62970734 42.44243622 59.63700867 41.4765625 59.64453125 C39.48111187 59.67261972 37.48566928 59.70128429 35.49023438 59.73046875 C32.35262448 59.7715632 29.21516148 59.8084591 26.07739258 59.83496094 C23.04346802 59.86279291 20.01022069 59.90868324 16.9765625 59.95703125 C16.05326645 59.96028412 15.1299704 59.96353699 14.17869568 59.96688843 C8.06224184 60.0806768 1.78641186 60.59672206 -3.73828125 63.43359375 C-4.98107232 65.32380463 -4.98107232 65.32380463 -5.73828125 67.43359375 C-6.47437622 68.88294312 -6.47437622 68.88294312 -7.2253418 70.36157227 C-11.22506883 78.27718777 -15.00906211 86.26979512 -18.64590454 94.35919189 C-20.26364669 97.95607797 -21.89195492 101.54818072 -23.51953125 105.140625 C-23.8616011 105.89603577 -24.20367096 106.65144653 -24.55610657 107.42974854 C-28.51292934 116.15845206 -32.52996505 124.85922921 -36.55078125 133.55859375 C-36.92535461 134.36934357 -37.29992798 135.18009338 -37.68585205 136.01541138 C-40.75366984 142.65551102 -43.82395179 149.29447026 -46.89440918 155.93334961 C-49.57269578 161.72456076 -52.24996968 167.51623858 -54.92578125 173.30859375 C-55.30192566 174.12275757 -55.67807007 174.93692139 -56.06561279 175.77575684 C-61.14269806 186.7686006 -66.17862777 197.77920788 -71.17578125 208.80859375 C-76.73927153 221.0873394 -82.37638366 233.33071693 -88.05078125 245.55859375 C-88.44993744 246.41878113 -88.84909363 247.27896851 -89.26034546 248.16522217 C-90.8782381 251.65148829 -92.49631644 255.13766817 -94.11460876 258.62374878 C-98.41528501 267.88933009 -102.70555746 277.15970141 -106.98828125 286.43359375 C-107.3626532 287.24421265 -107.73702515 288.05483154 -108.1227417 288.89001465 C-113.48531284 300.50597067 -118.79866139 312.14340543 -124.07672119 323.79797363 C-129.83315034 336.50447015 -135.70111777 349.15807031 -141.5831604 361.80682373 C-147.49754268 374.5294857 -153.31942335 387.28887881 -158.99462891 400.12011719 C-159.72238525 401.76028809 -159.72238525 401.76028809 -160.46484375 403.43359375 C-160.88330566 404.38234375 -161.30176758 405.33109375 -161.73291016 406.30859375 C-162.73828125 408.43359375 -162.73828125 408.43359375 -163.73828125 409.43359375 C-163.81054627 411.28646877 -163.82209345 413.14193253 -163.80078125 414.99609375 C-163.79175781 416.00800781 -163.78273438 417.01992188 -163.7734375 418.0625 C-163.76183594 418.84496094 -163.75023437 419.62742187 -163.73828125 420.43359375 C-160.17535549 422.04750457 -157.40178708 422.68430026 -153.4986496 422.68806934 C-152.45720936 422.69390154 -151.41576913 422.69973373 -150.3427701 422.70574266 C-148.63631484 422.70007367 -148.63631484 422.70007367 -146.89538574 422.69429016 C-145.6818264 422.69811571 -144.46826705 422.70194126 -143.21793318 422.70588273 C-139.85254072 422.71441807 -136.48736667 422.71397832 -133.12198043 422.70970213 C-129.49138852 422.70723684 -125.86082237 422.71624656 -122.23023987 422.72373962 C-115.1191516 422.73649356 -108.00810107 422.7382795 -100.89700329 422.73593936 C-95.11817512 422.73415702 -89.33935842 422.73590402 -83.56053162 422.7401638 C-82.73837039 422.74075899 -81.91620917 422.74135418 -81.06913397 422.74196741 C-79.39898129 422.74317914 -77.72882862 422.74439328 -76.05867594 422.74560978 C-60.39399108 422.75648774 -44.72932774 422.75432146 -29.06464165 422.74822494 C-14.72878782 422.74305404 -0.39300191 422.75431532 13.94283849 422.77332316 C28.65917886 422.79268612 43.37548707 422.80096036 58.09184027 422.7971999 C66.35548481 422.79528571 74.61907152 422.79779676 82.88270569 422.81191444 C89.9165698 422.8238095 96.95034049 422.82525418 103.98420584 422.81312428 C107.57369309 422.8072227 111.16300927 422.80617128 114.75248528 422.81812668 C118.64135003 422.83092892 122.52995365 422.8205516 126.41882324 422.80781555 C128.1252785 422.81887698 128.1252785 422.81887698 129.8662076 422.83016187 C130.90764783 422.82295533 131.94908807 422.81574878 133.0220871 422.80832386 C133.91969364 422.80837888 134.81730018 422.80843389 135.74210691 422.80849057 C138.83708131 422.34798469 140.73236861 421.24608291 143.26171875 419.43359375 C144.80680076 416.34342973 144.49328713 413.86076224 144.26171875 410.43359375 C143.30946599 407.79550488 142.32528572 405.42534636 141.10546875 402.921875 C140.77133972 402.20768906 140.43721069 401.49350311 140.09295654 400.75767517 C138.9942949 398.41474441 137.87791506 396.08071432 136.76171875 393.74609375 C135.19881394 390.42710491 133.64488842 387.10392721 132.08984375 383.78125 C131.69069763 382.93190887 131.29155151 382.08256775 130.88031006 381.20748901 C126.25484833 371.3424335 121.87197534 361.37055873 117.50805664 351.38760376 C112.70214554 338.56427934 112.70214554 338.56427934 105.26171875 327.43359375 C103.71248173 327.33121159 102.158595 327.29839952 100.60598755 327.29315186 C99.59924988 327.28744171 98.59251221 327.28173157 97.55526733 327.27584839 C95.88459702 327.2741716 95.88459702 327.2741716 94.18017578 327.27246094 C93.01442017 327.26749603 91.84866455 327.26253113 90.64758301 327.25741577 C87.44092559 327.2452824 84.23430468 327.23784247 81.02762842 327.23340511 C78.3536448 327.22949505 75.6796666 327.22333882 73.00568664 327.21749425 C67.41839606 327.20567267 61.83111545 327.1981422 56.24381363 327.19469905 C49.0104666 327.1902175 41.77730845 327.17266788 34.54401886 327.14369845 C28.95843145 327.12210227 23.37289725 327.11199587 17.78726852 327.11065793 C14.44871284 327.10960834 11.11037543 327.10223199 7.7718544 327.08583832 C4.04843939 327.06885942 0.32548836 327.07063826 -3.39794922 327.07714844 C-4.50768097 327.06793365 -5.61741272 327.05871887 -6.76077271 327.04922485 C-7.77315002 327.05479401 -8.78552734 327.06036316 -9.82858276 327.06610107 C-11.14986836 327.06390123 -11.14986836 327.06390123 -12.4978466 327.06165695 C-15.24768067 327.51815966 -16.05503332 328.25036998 -17.73828125 330.43359375 C-18.95463887 332.85068671 -20.07212936 335.24326869 -21.14453125 337.72265625 C-21.62663811 338.81451736 -21.62663811 338.81451736 -22.1184845 339.92843628 C-23.16486781 342.30237665 -24.20146614 344.68046107 -25.23828125 347.05859375 C-25.95657663 348.69106285 -26.67557464 350.32322296 -27.39526367 351.95507812 C-30.39585025 358.7667276 -33.37324827 365.58843875 -36.33999634 372.41488647 C-37.10689653 374.17867721 -37.8756811 375.94164824 -38.64453125 377.70458984 C-39.56003848 379.80675974 -40.47046444 381.91115227 -41.375 384.01806641 C-41.77976563 384.94925293 -42.18453125 385.88043945 -42.6015625 386.83984375 C-42.94485596 387.63712891 -43.28814941 388.43441406 -43.6418457 389.25585938 C-44.84808335 391.65168209 -45.89650806 393.46905149 -47.73828125 395.43359375 C-50.24279785 395.93479919 -50.24279785 395.93479919 -53.26367188 395.93530273 C-54.96058167 395.94937416 -54.96058167 395.94937416 -56.69177246 395.96372986 C-58.52463806 395.94687889 -58.52463806 395.94687889 -60.39453125 395.9296875 C-61.64834595 395.93114273 -62.90216064 395.93259796 -64.19396973 395.93409729 C-66.84747872 395.9324357 -69.49955979 395.92292388 -72.15283203 395.90014648 C-75.55272927 395.87176059 -78.95172851 395.87449836 -82.3516922 395.8872366 C-85.59519647 395.89586608 -88.83855513 395.88074757 -92.08203125 395.8671875 C-93.91489685 395.87159096 -93.91489685 395.87159096 -95.78479004 395.87608337 C-96.91606323 395.8633992 -98.04733643 395.85071503 -99.21289062 395.83764648 C-100.20977905 395.8322435 -101.20666748 395.82684052 -102.23376465 395.8212738 C-104.73828125 395.43359375 -104.73828125 395.43359375 -106.58776855 394.10313416 C-107.73828125 392.43359375 -107.73828125 392.43359375 -107.671875 389.31689453 C-106.55341017 384.66461903 -104.82306047 380.62194307 -102.80078125 376.30078125 C-102.40181641 375.42825714 -102.00285156 374.55573303 -101.59179688 373.6567688 C-100.31578432 370.87004941 -99.02767776 368.08914225 -97.73828125 365.30859375 C-96.06767687 361.68279231 -94.40221184 358.05464958 -92.73828125 354.42578125 C-92.32495544 353.526353 -91.91162964 352.62692474 -91.48577881 351.70024109 C-88.1084358 344.32029645 -84.88095029 336.88152119 -81.71533203 329.40853882 C-78.90429256 322.77371215 -75.90905171 316.24871068 -72.82568359 309.73535156 C-64.95063194 293.06584394 -57.30740316 276.30499288 -49.84576416 259.44726562 C-45.00958099 248.52198411 -40.12887741 237.61889836 -35.17578125 226.74609375 C-34.71464935 225.7338121 -34.71464935 225.7338121 -34.24420166 224.70108032 C-32.69612057 221.30371354 -31.14689289 217.90687111 -29.59716797 214.51025391 C-26.78398775 208.34300396 -23.98097451 202.17113209 -21.17706299 195.99966431 C-19.92588527 193.24607278 -18.67417955 190.49272141 -17.42248535 187.73936462 C-14.62156218 181.57810814 -11.82190242 175.41627965 -9.0234375 169.25390625 C-2.71268495 155.35847862 3.60642215 141.46686112 9.9446106 127.58392334 C10.64880875 126.04116005 11.35265334 124.49823531 12.05612183 122.95513916 C13.03504613 120.80814575 14.0153816 118.66180223 14.99609375 116.515625 C15.28293533 115.88585251 15.56977692 115.25608002 15.86531067 114.60722351 C20.7386924 103.9566201 20.7386924 103.9566201 23.26171875 101.43359375 C25.1836853 101.15943909 25.1836853 101.15943909 27.55615234 101.12719727 C28.44402435 101.11120987 29.33189636 101.09522247 30.24667358 101.07875061 C31.20812286 101.07338791 32.16957214 101.06802521 33.16015625 101.0625 C34.14666168 101.05347153 35.13316711 101.04444305 36.14956665 101.03514099 C38.23932856 101.02061542 40.32913618 101.01174605 42.41894531 101.00805664 C45.61731647 100.99616588 48.81375545 100.94700707 52.01171875 100.89648438 C54.04035515 100.88701993 56.06900342 100.879785 58.09765625 100.875 C59.05505707 100.85546768 60.01245789 100.83593536 60.99887085 100.81581116 C67.61458897 100.86077828 67.61458897 100.86077828 70.72998047 103.6184082 C72.24241308 106.39811181 73.66681892 109.13434834 74.93359375 112.03515625 C75.42472656 113.14697266 75.91585938 114.25878906 76.421875 115.40429688 C77.20884766 117.21317383 77.20884766 117.21317383 78.01171875 119.05859375 C79.16978193 121.68770104 80.33327296 124.31440042 81.49609375 126.94140625 C81.79930542 127.62837585 82.10251709 128.31534546 82.41491699 129.02313232 C85.62551883 136.28650575 88.93270391 143.50484079 92.24633789 150.72164917 C97.42728823 162.00802996 102.58433527 173.3050811 107.67431641 184.6328125 C108.48213055 186.43025785 109.29181121 188.226864 110.1015625 190.0234375 C112.33350025 195.00282619 114.54184662 199.99288332 116.65625 205.0234375 C116.98214111 205.79421631 117.30803223 206.56499512 117.64379883 207.35913086 C118.26171875 209.43359375 118.26171875 209.43359375 117.69921875 212.93359375 C116.26171875 215.43359375 116.26171875 215.43359375 113.26171875 217.43359375 C110.91578674 217.70101929 110.91578674 217.70101929 108.11938477 217.72412109 C107.07142227 217.7368808 106.02345978 217.7496405 104.94374084 217.76278687 C103.81246262 217.76501251 102.68118439 217.76723816 101.515625 217.76953125 C99.77163673 217.77951645 99.77163673 217.77951645 97.99241638 217.78970337 C95.53198836 217.79983483 93.07153284 217.80452024 90.61108398 217.80419922 C86.84247692 217.80857256 83.07504041 217.84488964 79.30664062 217.8828125 C76.91797276 217.8886804 74.52929933 217.89264997 72.140625 217.89453125 C71.011371 217.90890228 69.882117 217.92327332 68.71864319 217.93807983 C67.66752853 217.93192657 66.61641388 217.92577332 65.53344727 217.91943359 C64.1480349 217.92370865 64.1480349 217.92370865 62.7346344 217.92807007 C59.50847893 217.28297832 58.33951025 215.92224818 56.26171875 213.43359375 C55.07324219 211.51074219 55.07324219 211.51074219 54.12109375 209.54296875 C53.77304687 208.83398438 53.425 208.125 53.06640625 207.39453125 C52.71835937 206.66492188 52.3703125 205.9353125 52.01171875 205.18359375 C51.46644531 204.06597656 51.46644531 204.06597656 50.91015625 202.92578125 C50.0199973 201.09861288 49.13984485 199.26657541 48.26171875 197.43359375 C46.28171875 197.43359375 44.30171875 197.43359375 42.26171875 197.43359375 C37.26089157 207.12755931 32.79046514 217.02087528 28.38671875 226.99609375 C28.03610382 227.78918945 27.68548889 228.58228516 27.32424927 229.39941406 C25.26358991 234.06225858 23.20975894 238.7280669 21.15911865 243.39532471 C20.35259795 245.22717935 19.54111454 247.05684713 18.72900391 248.88623047 C17.54085707 251.56383712 16.36659173 254.24688291 15.19921875 256.93359375 C14.87131348 257.66650635 14.5434082 258.39941895 14.20556641 259.15454102 C13.05840855 261.83812957 12.21897966 263.89630238 12.453125 266.83984375 C13.16392672 268.63273843 13.16392672 268.63273843 15.26171875 269.43359375 C16.93124751 269.52568841 18.60446989 269.55385868 20.27653503 269.55143738 C21.33776581 269.55255524 22.39899658 269.5536731 23.49238586 269.55482483 C25.24641975 269.54931862 25.24641975 269.54931862 27.03588867 269.54370117 C29.58123272 269.54424401 32.12657675 269.54483103 34.67192078 269.54545593 C36.04098204 269.54412744 37.4100432 269.5426828 38.77910423 269.54112816 C43.01124527 269.53749883 47.24329672 269.54662877 51.47541809 269.55891418 C52.18963132 269.56093611 52.90384454 269.56295804 53.63970059 269.56504124 C55.10042264 269.5692101 56.56114459 269.57341285 58.02186644 269.57764876 C67.87571404 269.60579116 77.7293685 269.62594268 87.58325195 269.60864258 C94.2280773 269.59707182 100.8725012 269.60671463 107.51725465 269.64070016 C111.03269576 269.65783398 114.54741269 269.66417789 118.06285667 269.64458275 C121.98911822 269.62289734 125.91434358 269.64786204 129.84057617 269.67651367 C130.99981094 269.66272171 132.15904572 269.64892975 133.35340881 269.63471985 C139.62070026 269.72340821 143.41577556 270.29390015 147.95297813 274.78581429 C150.29343388 277.73258224 151.83578908 280.88001274 153.3203125 284.3203125 C153.66618912 285.08177078 154.01206573 285.84322906 154.36842346 286.62776184 C155.49527206 289.11844805 156.59704137 291.61940521 157.69921875 294.12109375 C158.49107461 295.88230456 159.28472264 297.64271059 160.08007812 299.40234375 C161.70506679 303.0032086 163.32094791 306.60793808 164.92919922 310.21630859 C168.00332399 317.10623918 171.147436 323.96368512 174.29348755 330.82098389 C175.26543123 332.9416941 176.23462652 335.06363818 177.20288086 337.18603516 C180.77643435 345.0182584 184.36828862 352.84176031 187.98046875 360.65625 C188.37951416 361.5196701 188.77855957 362.38309021 189.18969727 363.27267456 C191.11526583 367.43796031 193.04265707 371.60239042 194.97265625 375.765625 C198.59130274 383.58068506 202.16831169 391.4120821 205.66796875 399.28125 C206.16605042 400.40111046 206.16605042 400.40111046 206.67419434 401.54359436 C212.98423611 415.78999317 214.90122878 430.31930889 210.19921875 445.49609375 C204.3311328 460.69377703 194.90013901 471.38593641 180.28268921 478.57397836 C171.20510643 482.43510843 162.33078043 482.86702262 152.58718872 482.8212738 C151.12677664 482.82545394 149.66636781 482.83093517 148.20596492 482.83759362 C144.21969302 482.85197786 140.23362911 482.84782564 136.24734616 482.8404268 C131.93775602 482.83567994 127.62820989 482.84821837 123.31863403 482.85844421 C114.88619231 482.87560792 106.45382519 482.87647727 98.02137055 482.87123131 C91.1648525 482.86718382 84.30835644 482.86864003 77.45183945 482.87397957 C76.47460535 482.87472799 75.49737126 482.87547641 74.49052402 482.87624751 C72.50503739 482.87777905 70.51955077 482.8793174 68.53406416 482.88086248 C49.93001121 482.89457876 31.32600035 482.88915598 12.72194837 482.87767727 C-4.28204294 482.86774596 -21.28592541 482.88068535 -38.28989993 482.90461146 C-55.76822407 482.9290189 -73.24649755 482.93860627 -90.72483838 482.93195873 C-100.53014168 482.92847015 -110.33536132 482.93067472 -120.1406517 482.94820976 C-128.48765445 482.96295231 -136.83451459 482.96354037 -145.18151461 482.94613885 C-149.43635074 482.93764335 -153.69093234 482.93544364 -157.945755 482.95079041 C-161.84808756 482.964691 -165.74994882 482.95980614 -169.65225448 482.94055117 C-171.0565878 482.93680722 -172.46095936 482.9396664 -173.86525844 482.95016282 C-189.31559814 483.05734566 -204.09577439 478.94356103 -215.73828125 468.43359375 C-226.53856309 457.02197521 -232.62070966 443.11286067 -233.11328125 427.37109375 C-232.6255601 413.48007292 -226.5502754 401.76921565 -220.73828125 389.43359375 C-219.90171589 387.65036248 -219.06516325 385.8671252 -218.22895813 384.08372498 C-216.04324649 379.42223136 -213.85591296 374.76150854 -211.66430664 370.1027832 C-207.17826221 360.55817772 -202.77516887 350.97867245 -198.42578125 341.37109375 C-192.95386053 329.28573136 -187.42972569 317.22572411 -181.86328125 305.18359375 C-180.33590961 301.87891914 -178.80855193 298.57423808 -177.28125 295.26953125 C-176.90304108 294.45123337 -176.52483215 293.63293549 -176.13516235 292.7898407 C-172.1362198 284.13515828 -168.1544403 275.47261555 -164.17578125 266.80859375 C-163.82710999 266.04937622 -163.47843872 265.29015869 -163.11920166 264.50793457 C-161.36165436 260.68083851 -159.60434494 256.85363329 -157.84716797 253.02636719 C-154.66672063 246.09943728 -151.48401893 239.17354318 -148.30151367 232.24755859 C-147.23934434 229.93590741 -146.17727294 227.62421126 -145.11523438 225.3125 C-141.91935496 218.35619492 -138.72310599 211.40006073 -135.52510071 204.44473267 C-133.74176055 200.5661271 -131.958697 196.68739443 -130.17578125 192.80859375 C-129.82321259 192.04158142 -129.47064392 191.27456909 -129.10739136 190.48431396 C-123.65987931 178.63167738 -118.2338549 166.7693455 -112.81665039 154.90283203 C-107.08893151 142.35883003 -101.312401 129.83772763 -95.52566528 117.32086182 C-90.69663625 106.87306875 -85.8958315 96.41332257 -81.14382935 85.93026733 C-79.32883424 81.92832333 -77.5085349 77.92878727 -75.68885803 73.92897034 C-73.93861668 70.08005304 -72.19331513 66.22896138 -70.453125 62.37548828 C-68.45175564 57.94503342 -66.43971587 53.51954374 -64.42163086 49.09667969 C-63.64407199 47.38787898 -62.87003503 45.67747048 -62.09985352 43.96533203 C-54.08266603 26.15288775 -45.42154475 11.47961341 -26.73828125 3.43359375 C-17.9236151 0.21041426 -9.26557936 -0.02506458 0 0 Z " fill="#FDFDFD" transform="translate(259.73828125,8.56640625)"/>
<path d="M0 0 C0.66 0.33 1.32 0.66 2 1 C2.625 3.0625 2.625 3.0625 3 5 C2.38125 5.28875 1.7625 5.5775 1.125 5.875 C-1.13325765 6.93720042 -1.13325765 6.93720042 -3 9 C-2.30058404 5.85262818 -1.23921302 2.97411124 0 0 Z " fill="#E5E2E1" transform="translate(180,334)"/>
</svg>
